<svg width="429" height="60" viewBox="0 0 429 60" fill="none" xmlns="http://www.w3.org/2000/svg">
<g clip-path="url(#clip0_18_181)">
<path d="M77.2105 59.0329C83.3022 59.0329 88.2405 54.0946 88.2405 48.0028C88.2405 41.9111 83.3022 36.9728 77.2105 36.9728C71.1187 36.9728 66.1804 41.9111 66.1804 48.0028C66.1804 54.0946 71.1187 59.0329 77.2105 59.0329Z" stroke="white" stroke-width="3.83654" stroke-miterlimit="10"/>
<path d="M11.032 59.0348C17.1248 59.0348 22.064 54.0956 22.064 48.0028C22.064 41.91 17.1248 36.9708 11.032 36.9708C4.93918 36.9708 0 41.91 0 48.0028C0 54.0956 4.93918 59.0348 11.032 59.0348Z" stroke="white" stroke-width="3.83654" stroke-miterlimit="10"/>
<path d="M60.907 0C78.9234 4.03796 84.5248 24.8512 84.5248 24.8512C59.3571 20.5025 54.3811 52.8177 54.3811 52.8177H33.2513C31.6994 26.4069 0 18.6418 0 18.6418C0 18.6418 14.6153 13.9823 21.7551 18.0222C28.9026 22.0601 43.5006 19.2614 46.9248 15.2234C50.3412 11.1874 62.4589 9.93856 68.9849 14.295" stroke="white" stroke-width="3.83654" stroke-miterlimit="10" stroke-linecap="round" stroke-linejoin="round"/>
<path d="M133.507 27.1612C137.407 28.2754 141.418 31.7852 141.418 37.3563C141.418 44.4874 136.961 48.8328 127.212 48.8328H111.334V9.83494H126.153C134.343 9.83494 138.466 14.459 138.466 19.6958C138.466 23.9856 135.68 26.1583 133.507 27.1612ZM125.318 17.6345H120.304V24.5984H125.318C128.493 24.5984 129.552 23.1499 129.552 21.0886C129.552 18.8602 128.215 17.6345 125.318 17.6345ZM126.711 41.0333C130.666 41.0333 132.449 39.3619 132.449 36.1864C132.449 33.5122 130.666 31.7852 126.265 31.7852H120.304V41.0333H126.711ZM177.798 48.8328L175.068 42.3703H156.739L154.009 48.8328H144.482L161.809 9.83494H169.998L187.324 48.8328H177.798ZM159.859 35.0722H172.004L165.931 20.6986L159.859 35.0722ZM218.578 9.83494V18.0802H209.108V48.8328H200.138V18.0802H190.667V9.83494H218.578ZM266.212 9.83494V48.8328H256.964V30.0024L248.997 48.8328H241.253L233.398 30.1138V48.8328H224.15V9.83494H233.008L245.208 36.9106L257.353 9.83494H266.212ZM292.34 9.27783C303.371 9.27783 312.619 17.4674 312.619 29.3339C312.619 41.2004 303.371 49.39 292.34 49.39C281.309 49.39 272.061 41.2004 272.061 29.3339C272.061 17.4674 281.309 9.27783 292.34 9.27783ZM292.34 40.9776C298.636 40.9776 303.315 36.075 303.315 29.3339C303.315 22.5928 298.636 17.6902 292.34 17.6902C286.045 17.6902 281.421 22.5928 281.421 29.3339C281.421 36.075 286.045 40.9776 292.34 40.9776ZM340.698 27.1612C344.597 28.2754 348.609 31.7852 348.609 37.3563C348.609 44.4874 344.152 48.8328 334.402 48.8328H318.524V9.83494H333.344C341.533 9.83494 345.656 14.459 345.656 19.6958C345.656 23.9856 342.87 26.1583 340.698 27.1612ZM332.508 17.6345H327.494V24.5984H332.508C335.684 24.5984 336.742 23.1499 336.742 21.0886C336.742 18.8602 335.405 17.6345 332.508 17.6345ZM333.901 41.0333C337.856 41.0333 339.639 39.3619 339.639 36.1864C339.639 33.5122 337.856 31.7852 333.455 31.7852H327.494V41.0333H333.901ZM362.871 9.83494V48.8328H353.901V9.83494H362.871ZM378.526 40.5876H393.345V48.8328H369.556V9.83494H378.526V40.5876ZM428.777 9.83494L411.674 41.1447H429V48.8328H397.523L414.626 17.5231H398.47V9.83494H428.777Z" fill="white"/>
</g>
<defs>
<clipPath id="clip0_18_181">
<rect width="429" height="59.0348" fill="white"/>
</clipPath>
</defs>
</svg>
